# Blender v2.69 (sub 0) OBJ File: 'landscape positions.blend'
# www.blender.org
o Can_top_Cube.003
v 0.371692 -0.064520 -0.995878
v 0.410658 -0.063800 -0.995878
v 0.400077 -0.063240 -1.024263
v 0.371692 -0.063800 -1.034843
v 0.343308 -0.063240 -1.024263
v 0.332727 -0.063800 -0.995878
v 0.343308 -0.063240 -0.967493
v 0.371692 -0.063800 -0.956912
v 0.400077 -0.063240 -0.967493
v 0.421492 -0.061641 -0.995878
v 0.409042 -0.061641 -1.033228
v 0.409042 -0.061641 -0.958528
v 0.398641 -0.060042 -0.968929
v 0.407427 -0.059482 -0.995878
v 0.398641 -0.060042 -1.022827
v 0.371692 -0.061641 -1.045678
v 0.334342 -0.061641 -1.033228
v 0.371692 -0.059482 -1.031612
v 0.344743 -0.060042 -1.022827
v 0.371692 -0.061641 -0.946078
v 0.334342 -0.061641 -0.958528
v 0.344743 -0.060042 -0.968929
v 0.371692 -0.059482 -0.960143
v 0.321892 -0.061641 -0.995878
v 0.335958 -0.059482 -0.995878
v 0.371692 -0.058763 -0.995878
v 0.370329 -0.055837 -0.982362
v 0.370329 -0.050283 -0.982362
v 0.372967 -0.050283 -0.982864
v 0.372967 -0.055837 -0.982864
v 0.372283 -0.059474 -0.983255
v 0.370329 -0.060747 -0.982864
v 0.368375 -0.059474 -0.983255
v 0.367691 -0.055837 -0.982864
v 0.367691 -0.050283 -0.982864
v 0.370329 -0.046714 -0.982362
v 0.367691 -0.046714 -0.982864
v 0.368375 -0.045283 -0.983255
v 0.370329 -0.044782 -0.982864
v 0.372283 -0.045283 -0.983255
v 0.372967 -0.046714 -0.982864
v 0.370329 -0.055837 -0.986383
v 0.372967 -0.055837 -0.985880
v 0.373283 -0.049925 -0.987992
v 0.370329 -0.050926 -0.989399
v 0.367374 -0.049925 -0.987992
v 0.367691 -0.055837 -0.985880
v 0.368375 -0.059474 -0.985489
v 0.370329 -0.060747 -0.985880
v 0.372283 -0.059474 -0.985489
v 0.373846 -0.046714 -0.998447
v 0.372967 -0.048646 -0.998447
v 0.373846 -0.046714 -0.988896
v 0.372967 -0.044782 -0.988896
v 0.372967 -0.044782 -0.998447
v 0.372967 -0.044782 -1.007998
v 0.373846 -0.046714 -1.007998
v 0.373283 -0.049968 -1.008902
v 0.373846 -0.046714 -0.984372
v 0.373846 -0.050283 -0.984372
v 0.372967 -0.044782 -0.984372
v 0.366811 -0.046714 -0.984372
v 0.367691 -0.044782 -0.984372
v 0.366811 -0.050283 -0.984372
v 0.366811 -0.046714 -0.988896
v 0.367691 -0.044782 -0.988896
v 0.370329 -0.044139 -0.984372
v 0.370329 -0.044139 -0.988896
v 0.370329 -0.062384 -0.984372
v 0.367691 -0.060747 -0.984372
v 0.372967 -0.060747 -0.984372
v 0.373846 -0.055837 -0.984372
v 0.366811 -0.055837 -0.984372
v 0.373846 -0.046714 -1.012521
v 0.373846 -0.050350 -1.012521
v 0.372967 -0.044782 -1.012521
v 0.372283 -0.045283 -1.013639
v 0.372967 -0.046714 -1.014029
v 0.372967 -0.050350 -1.014029
v 0.366811 -0.046714 -0.998447
v 0.367691 -0.044782 -0.998447
v 0.367691 -0.048646 -0.998447
v 0.367374 -0.049968 -1.008902
v 0.366811 -0.046714 -1.007998
v 0.367691 -0.044782 -1.007998
v 0.370329 -0.044139 -0.998447
v 0.370329 -0.044139 -1.007998
v 0.370329 -0.049290 -0.998447
v 0.370329 -0.050994 -1.007495
v 0.370329 -0.046714 -1.014532
v 0.367691 -0.046714 -1.014029
v 0.367691 -0.050350 -1.014029
v 0.370329 -0.050350 -1.014532
v 0.370329 -0.044782 -1.014029
v 0.368375 -0.045283 -1.013639
v 0.366811 -0.046714 -1.012521
v 0.367691 -0.044782 -1.012521
v 0.366811 -0.050350 -1.012521
v 0.370329 -0.044139 -1.012521
v 0.366811 -0.056107 -1.012521
v 0.367691 -0.056107 -1.014029
v 0.367691 -0.056107 -1.011014
v 0.368375 -0.059895 -1.011404
v 0.367691 -0.061220 -1.012521
v 0.368375 -0.059895 -1.013639
v 0.370329 -0.062925 -1.012521
v 0.370329 -0.061220 -1.011014
v 0.372283 -0.059895 -1.011404
v 0.372967 -0.061220 -1.012521
v 0.372283 -0.059895 -1.013639
v 0.370329 -0.061220 -1.014029
v 0.373846 -0.056107 -1.012521
v 0.372967 -0.056107 -1.011014
v 0.372967 -0.056107 -1.014029
v 0.370329 -0.056107 -1.014532
v 0.370329 -0.056107 -1.010511
vt 0.750000 0.750000
vt 0.750000 0.500000
vt 1.000000 0.500000
vt 1.000000 0.750000
vt 1.000000 1.000000
vt 0.750000 1.000000
vt 0.500000 1.000000
vt 0.500000 0.750000
vt 0.500000 0.500000
vt 0.484769 0.250000
vt 0.426077 0.073924
vt 0.437500 0.062500
vt 0.500000 0.250000
vt 0.426077 0.426077
vt 0.377042 0.377042
vt 0.418461 0.250000
vt 0.377042 0.122958
vt 0.250000 0.015231
vt 0.073924 0.073923
vt 0.062500 0.062500
vt 0.250000 0.000000
vt 0.250000 0.081539
vt 0.122958 0.122958
vt 0.250000 0.484769
vt 0.250000 0.500000
vt 0.062500 0.437500
vt 0.073923 0.426077
vt 0.122958 0.377042
vt 0.250000 0.418461
vt 0.015231 0.250000
vt 0.000000 0.250000
vt 0.081539 0.250000
vt 0.250000 0.250000
vt 0.516581 0.384830
vt 0.516581 0.411014
vt 0.500000 0.411014
vt 0.500000 0.384830
vt 0.500000 0.353965
vt 0.516581 0.353965
vt 0.533161 0.353965
vt 0.533161 0.384830
vt 0.533161 0.411014
vt 0.516581 0.427836
vt 0.533161 0.427836
vt 0.533161 0.439977
vt 0.516581 0.439977
vt 0.500000 0.439977
vt 0.500000 0.427836
vt 0.319899 0.530865
vt 0.336479 0.530865
vt 0.336479 0.561730
vt 0.319899 0.561730
vt 0.303318 0.561730
vt 0.303318 0.530865
vt 0.303318 0.500000
vt 0.319899 0.500000
vt 0.336479 0.500000
vt 0.075829 0.576420
vt 0.075829 0.564279
vt 0.118484 0.556562
vt 0.120853 0.576420
vt 0.120853 0.588562
vt 0.075829 0.588562
vt 0.030806 0.588562
vt 0.030806 0.576420
vt 0.033175 0.556244
vt 0.142180 0.576420
vt 0.142180 0.559598
vt 0.151659 0.559598
vt 0.151659 0.576420
vt 0.151659 0.588562
vt 0.142180 0.588562
vt 0.161138 0.576420
vt 0.161138 0.588562
vt 0.161138 0.559598
vt 0.184834 0.556562
vt 0.182465 0.576420
vt 0.182465 0.588562
vt 0.516581 0.142180
vt 0.533161 0.142180
vt 0.533161 0.151659
vt 0.516581 0.151659
vt 0.500000 0.151659
vt 0.500000 0.142180
vt 0.500000 0.120853
vt 0.516581 0.120853
vt 0.533161 0.120853
vt 0.450258 0.509479
vt 0.433677 0.509479
vt 0.433677 0.500000
vt 0.450258 0.500000
vt 0.466839 0.500000
vt 0.466839 0.509479
vt 0.466839 0.518957
vt 0.450258 0.518957
vt 0.433677 0.518957
vt 0.142180 0.533414
vt 0.142180 0.502549
vt 0.151659 0.502549
vt 0.151659 0.533414
vt 0.132702 0.533414
vt 0.132702 0.502549
vt 0.161138 0.533414
vt 0.161138 0.502549
vt 0.170616 0.502549
vt 0.170616 0.533414
vt 0.009479 0.576420
vt 0.009479 0.559279
vt 0.009479 0.588562
vt 0.000000 0.588562
vt 0.000000 0.576420
vt 0.000000 0.559279
vt 0.227488 0.576420
vt 0.227488 0.588562
vt 0.227488 0.564279
vt 0.270142 0.556244
vt 0.272512 0.576420
vt 0.272512 0.588562
vt 0.516581 0.075829
vt 0.533161 0.075829
vt 0.500000 0.075829
vt 0.500000 0.030806
vt 0.516581 0.030806
vt 0.533161 0.030806
vt 0.516581 0.208531
vt 0.533161 0.208531
vt 0.533161 0.265403
vt 0.516581 0.265403
vt 0.500000 0.265403
vt 0.500000 0.208531
vt 0.516581 0.341823
vt 0.500000 0.341823
vt 0.500000 0.324682
vt 0.516581 0.324682
vt 0.533161 0.324682
vt 0.533161 0.341823
vt 0.293839 0.576420
vt 0.293839 0.588562
vt 0.293839 0.559279
vt 0.303318 0.559279
vt 0.303318 0.576420
vt 0.303318 0.588562
vt 0.516581 0.009479
vt 0.533161 0.009479
vt 0.500000 0.009479
vt 0.500000 0.000000
vt 0.516581 0.000000
vt 0.533161 0.000000
vt 0.293839 0.532139
vt 0.303318 0.532139
vt 0.284361 0.532139
vt 0.284361 0.500000
vt 0.293839 0.500000
vt 0.509479 0.456558
vt 0.509479 0.473139
vt 0.500000 0.473139
vt 0.500000 0.456558
vt 0.509479 0.439977
vt 0.518957 0.439977
vt 0.518957 0.456558
vt 0.518957 0.473139
vt 0.009479 0.532139
vt 0.018957 0.532139
vt 0.000000 0.532139
vt 0.000000 0.500000
vt 0.009479 0.500000
vt 0.018957 0.500000
vt 0.516581 0.297542
vt 0.533161 0.297542
vt 0.500000 0.297542
vt 0.483419 0.532139
vt 0.466839 0.532139
vt 0.483419 0.500000
vt 0.500000 0.532139
vt 0.500000 0.564279
vt 0.483419 0.564279
vt 0.466839 0.564279
vn -0.022535 0.999492 0.022536
vn 0.022536 0.999492 0.022536
vn 0.022536 0.999492 -0.022535
vn -0.022536 0.999492 -0.022535
vn -0.999939 -0.009613 0.000000
vn -0.707022 -0.013672 0.707022
vn -0.111215 0.987554 0.111216
vn -0.158462 0.987365 0.000000
vn -0.111217 0.987553 -0.111217
vn -0.707022 -0.013672 -0.707022
vn -0.067476 -0.995422 -0.067476
vn -0.087680 -0.996124 0.000000
vn -0.067476 -0.995422 0.067476
vn 0.000000 -0.009613 0.999939
vn 0.707022 -0.013672 0.707022
vn 0.111207 0.987555 0.111213
vn 0.000000 0.987366 0.158456
vn 0.000000 -0.996124 0.087680
vn 0.067476 -0.995422 0.067476
vn 0.000000 -0.009613 -0.999939
vn 0.000000 0.987365 -0.158460
vn 0.111209 0.987554 -0.111214
vn 0.707022 -0.013672 -0.707022
vn 0.067476 -0.995422 -0.067476
vn 0.000000 -0.996124 -0.087680
vn 0.999939 -0.009613 0.000000
vn 0.158448 0.987367 0.000000
vn 0.087680 -0.996124 0.000000
vn 0.000000 -1.000000 0.000000
vn 0.000000 0.060427 -0.998169
vn 0.000000 0.000000 -1.000000
vn -0.577380 0.000000 -0.816431
vn -0.574206 0.078188 -0.814936
vn -0.523789 0.269753 -0.807978
vn 0.000000 0.442579 -0.896695
vn 0.523698 0.269753 -0.808039
vn 0.574053 0.078219 -0.815058
vn 0.577197 0.000000 -0.816584
vn 0.000000 -0.147923 -0.988983
vn 0.574877 -0.184881 -0.797052
vn 0.425977 -0.573107 -0.700034
vn 0.000000 -0.654866 -0.755730
vn -0.426069 -0.573077 -0.700003
vn -0.575030 -0.184820 -0.796960
vn 0.000000 0.285806 0.958251
vn -0.677084 0.211158 0.704917
vn -0.864986 0.389355 0.316477
vn -0.000031 0.834773 0.550554
vn 0.864956 0.389416 0.316507
vn 0.676962 0.211219 0.705039
vn 0.523759 0.269814 0.807978
vn 0.000000 0.442640 0.896695
vn -0.523850 0.269784 0.807917
vn -0.997192 -0.074587 -0.000122
vn -0.736290 0.676626 -0.001495
vn -0.993225 -0.113163 0.025971
vn -0.637654 -0.770318 0.000000
vn -0.993103 -0.114170 -0.026185
vn -0.866909 0.384045 -0.317698
vn -0.950774 -0.188116 -0.246162
vn -0.983856 0.045015 -0.173101
vn -0.623615 -0.740684 -0.249855
vn 0.950713 -0.188269 -0.246315
vn 0.623463 -0.740806 -0.249886
vn 0.983825 0.045045 -0.173315
vn 0.993194 -0.113315 0.026002
vn 0.637471 -0.770440 0.000000
vn 0.000000 -0.973937 -0.226783
vn 0.000000 1.000000 0.000000
vn 0.797967 0.602680 0.000000
vn -0.797998 0.602619 0.000000
vn -0.990478 0.119694 -0.067721
vn 0.990478 0.119785 -0.067812
vn -0.950743 -0.188482 0.246010
vn -0.983978 0.043855 0.172735
vn -0.623646 -0.740684 0.249794
vn -0.426069 -0.573077 0.700003
vn -0.575182 -0.184820 0.796838
vn -0.577532 0.000000 0.816340
vn 0.997192 -0.074709 -0.000122
vn 0.736198 0.676717 -0.001495
vn 0.866848 0.384106 -0.317759
vn 0.993072 -0.114322 -0.026185
vn 0.000000 0.999969 -0.002747
vn -0.000031 0.827448 -0.561510
vn 0.000000 -0.147923 0.988983
vn 0.575030 -0.184851 0.796930
vn 0.577349 0.000000 0.816492
vn 0.000000 0.000000 1.000000
vn 0.000000 -0.654988 0.755608
vn 0.425977 -0.573107 0.700034
vn 0.950682 -0.188635 0.246162
vn 0.623493 -0.740806 0.249825
vn 0.983947 0.043886 0.172948
vn 0.000000 -0.973937 0.226691
vn 0.991028 0.115268 0.067568
vn 0.574023 0.075198 0.815332
vn 0.676412 0.203894 -0.707694
vn 0.525925 0.258522 -0.810236
vn 0.803705 0.595019 -0.000153
vn 0.526078 0.258614 0.810114
vn 0.000000 0.999969 -0.000153
vn 0.000000 0.433058 -0.901334
vn -0.526017 0.258522 -0.810205
vn -0.803735 0.594958 -0.000153
vn -0.526170 0.258614 0.810083
vn 0.000000 0.433241 0.901242
vn -0.991028 0.115177 0.067446
vn -0.676534 0.203833 -0.707602
vn -0.574206 0.075167 0.815241
vn 0.000000 0.058077 0.998291
vn 0.000000 0.275887 -0.961180
s off
f 1/1/1 2/2/1 3/3/1 4/4/1
f 1/1/2 4/4/2 5/5/2 6/6/2
f 1/1/3 6/6/3 7/7/3 8/8/3
f 1/1/4 8/8/4 9/9/4 2/2/4
s 1
f 10/10/5 11/11/6 3/12/7 2/13/8
f 10/10/5 2/13/8 9/9/9 12/14/10
f 10/10/5 12/14/10 13/15/11 14/16/12
f 10/10/5 14/16/12 15/17/13 11/11/6
f 16/18/14 17/19/15 5/20/16 4/21/17
f 16/18/14 4/21/17 3/12/7 11/11/6
f 16/18/14 11/11/6 15/17/13 18/22/18
f 16/18/14 18/22/18 19/23/19 17/19/15
f 20/24/20 12/14/10 9/9/9 8/25/21
f 20/24/20 8/25/21 7/26/22 21/27/23
f 20/24/20 21/27/23 22/28/24 23/29/25
f 20/24/20 23/29/25 13/15/11 12/14/10
f 24/30/26 21/27/23 7/26/22 6/31/27
f 24/30/26 6/31/27 5/20/16 17/19/15
f 24/30/26 17/19/15 19/23/19 25/32/28
f 24/30/26 25/32/28 22/28/24 21/27/23
f 26/33/29 18/22/18 15/17/13 14/16/12
f 26/33/29 14/16/12 13/15/11 23/29/25
f 26/33/29 23/29/25 22/28/24 25/32/28
f 26/33/29 25/32/28 19/23/19 18/22/18
f 27/34/30 28/35/31 29/36/32 30/37/33
f 27/34/30 30/37/33 31/38/34 32/39/35
f 27/34/30 32/39/35 33/40/36 34/41/37
f 27/34/30 34/41/37 35/42/38 28/35/31
f 36/43/39 28/35/31 35/42/38 37/44/40
f 36/43/39 37/44/40 38/45/41 39/46/42
f 36/43/39 39/46/42 40/47/43 41/48/44
f 36/43/39 41/48/44 29/36/32 28/35/31
f 42/49/45 43/50/46 44/51/47 45/52/48
f 42/49/45 45/52/48 46/53/49 47/54/50
f 42/49/45 47/54/50 48/55/51 49/56/52
f 42/49/45 49/56/52 50/57/53 43/50/46
f 51/58/54 52/59/55 44/60/47 53/61/56
f 51/58/54 53/61/56 54/62/57 55/63/57
f 51/58/54 55/63/57 56/64/57 57/65/58
f 51/58/54 57/65/58 58/66/59 52/59/55
f 59/67/60 60/68/61 29/69/32 41/70/44
f 59/67/60 41/70/44 40/71/43 61/72/62
f 59/67/60 61/72/62 54/62/57 53/61/56
f 59/67/60 53/61/56 44/60/47 60/68/61
f 62/73/63 63/74/64 38/71/41 37/70/40
f 62/73/63 37/70/40 35/69/38 64/75/65
f 62/73/63 64/75/65 46/76/49 65/77/66
f 62/73/63 65/77/66 66/78/67 63/74/64
f 67/79/68 61/80/62 40/81/43 39/82/42
f 67/79/68 39/82/42 38/83/41 63/84/64
f 67/79/68 63/84/64 66/85/67 68/86/29
f 67/79/68 68/86/29 54/87/57 61/80/62
f 69/88/69 70/89/70 33/90/36 32/91/35
f 69/88/69 32/91/35 31/92/34 71/93/71
f 69/88/69 71/93/71 50/94/53 49/95/52
f 69/88/69 49/95/52 48/96/51 70/89/70
f 72/97/72 71/98/71 31/99/34 30/100/33
f 72/97/72 30/100/33 29/69/32 60/68/61
f 72/97/72 60/68/61 44/60/47 43/101/46
f 72/97/72 43/101/46 50/102/53 71/98/71
f 73/103/73 64/75/65 35/69/38 34/100/37
f 73/103/73 34/100/37 33/99/36 70/104/70
f 73/103/73 70/104/70 48/105/51 47/106/50
f 73/103/73 47/106/50 46/76/49 64/75/65
f 74/107/74 75/108/75 58/66/59 57/65/58
f 74/107/74 57/65/58 56/64/57 76/109/76
f 74/107/74 76/109/76 77/110/77 78/111/78
f 74/107/74 78/111/78 79/112/79 75/108/75
f 80/113/80 81/114/67 66/78/67 65/77/66
f 80/113/80 65/77/66 46/76/49 82/115/81
f 80/113/80 82/115/81 83/116/82 84/117/83
f 80/113/80 84/117/83 85/118/67 81/114/67
f 86/119/29 55/120/57 54/87/57 68/86/29
f 86/119/29 68/86/29 66/85/67 81/121/67
f 86/119/29 81/121/67 85/122/67 87/123/29
f 86/119/29 87/123/29 56/124/57 55/120/57
f 88/125/84 82/126/81 46/127/49 45/128/48
f 88/125/84 45/128/48 44/129/47 52/130/55
f 88/125/84 52/130/55 58/83/59 89/82/85
f 88/125/84 89/82/85 83/81/82 82/126/81
f 90/131/86 91/132/87 92/133/88 93/134/89
f 90/131/86 93/134/89 79/135/79 78/136/78
f 90/131/86 78/136/78 77/40/77 94/39/90
f 90/131/86 94/39/90 95/38/91 91/132/87
f 96/137/92 97/138/93 85/118/67 84/117/83
f 96/137/92 84/117/83 83/116/82 98/139/94
f 96/137/92 98/139/94 92/140/88 91/141/87
f 96/137/92 91/141/87 95/142/91 97/138/93
f 99/143/95 76/144/76 56/124/57 87/123/29
f 99/143/95 87/123/29 85/122/67 97/145/93
f 99/143/95 97/145/93 95/146/91 94/147/90
f 99/143/95 94/147/90 77/148/77 76/144/76
f 100/149/96 101/150/97 92/140/88 98/139/94
f 100/149/96 98/139/94 83/116/82 102/151/98
f 100/149/96 102/151/98 103/152/99 104/153/100
f 100/149/96 104/153/100 105/55/101 101/150/97
f 106/154/102 104/155/100 103/156/99 107/157/103
f 106/154/102 107/157/103 108/47/104 109/158/105
f 106/154/102 109/158/105 110/159/106 111/160/107
f 106/154/102 111/160/107 105/161/101 104/155/100
f 112/162/108 113/163/109 58/66/59 75/108/75
f 112/162/108 75/108/75 79/112/79 114/164/110
f 112/162/108 114/164/110 110/165/106 109/166/105
f 112/162/108 109/166/105 108/167/104 113/163/109
f 115/168/111 114/169/110 79/135/79 93/134/89
f 115/168/111 93/134/89 92/133/88 101/170/97
f 115/168/111 101/170/97 105/129/101 111/128/107
f 115/168/111 111/128/107 110/127/106 114/169/110
f 116/171/112 102/172/98 83/92/82 89/173/85
f 116/171/112 89/173/85 58/9/59 113/174/109
f 116/171/112 113/174/109 108/175/104 107/176/103
f 116/171/112 107/176/103 103/177/99 102/172/98
